<svg width="23" height="22" viewBox="0 0 23 22" fill="none" xmlns="http://www.w3.org/2000/svg">
<g id="Icon">
<path id="Vector" d="M9.39727 1.21273C9.71067 0.92649 10.1968 0.930411 10.5102 1.21665C11.6191 2.23221 12.6598 3.32619 13.6321 4.51036C14.0741 3.94572 14.5763 3.33011 15.1187 2.82821C15.4361 2.53805 15.9263 2.53805 16.2437 2.83214C17.6339 4.12609 18.8111 5.83568 19.6388 7.45901C20.4544 9.05881 20.9968 10.6939 20.9968 11.8467C20.9968 16.85 16.987 21.0769 11.9968 21.0769C6.9504 21.0769 2.99683 16.8461 2.99683 11.8428C2.99683 10.3371 3.712 8.4981 4.82093 6.67872C5.94192 4.83189 7.52495 2.90664 9.39727 1.21273ZM12.0651 17.3127C13.0816 17.3127 13.9816 17.0382 14.8294 16.4893C16.5209 15.3365 16.975 13.0309 15.9584 11.2193C15.7776 10.8664 15.3156 10.8429 15.0544 11.1409L14.0419 12.2898C13.7767 12.5878 13.2986 12.5799 13.0495 12.2702C12.3866 11.4468 11.2013 9.97635 10.5263 9.14116C10.2732 8.82747 9.79102 8.82355 9.53388 9.13723C8.17584 10.8037 7.49281 11.8545 7.49281 13.0348C7.49683 15.7207 9.52986 17.3127 12.0651 17.3127Z" fill="#0065FC"/>
</g>
</svg>
