<svg width="19" height="16" viewBox="0 0 19 16" fill="none" xmlns="http://www.w3.org/2000/svg">
<g id="Icon">
<path id="Vector" d="M2.3833 12.9375C2.3833 13.2469 2.63502 13.5 2.9458 13.5H17.0083C17.6306 13.5 18.1333 14.0027 18.1333 14.625C18.1333 15.2473 17.6306 15.75 17.0083 15.75H2.9458C1.3926 15.75 0.133301 14.4914 0.133301 12.9375V1.125C0.133301 0.503789 0.63709 0 1.2583 0C1.87951 0 2.3833 0.503789 2.3833 1.125V12.9375ZM12.1778 8.66953C11.7384 9.10898 11.0282 9.10898 10.5888 8.66953L8.5708 6.65508L5.42783 9.79453C4.98838 10.234 4.27822 10.234 3.83877 9.79453C3.39861 9.35508 3.39861 8.64492 3.83877 8.20547L7.77627 4.26797C8.21572 3.82852 8.92588 3.82852 9.36533 4.26797L11.3833 6.28242L15.0888 2.58047C15.5282 2.14031 16.2384 2.14031 16.6778 2.58047C17.1173 3.01992 17.1173 3.73008 16.6778 4.16953L12.1778 8.66953Z" fill="#0065FC"/>
</g>
</svg>
